<svg width="18" height="20" viewBox="0 0 18 20" fill="none" xmlns="http://www.w3.org/2000/svg">
<path fill-rule="evenodd" clip-rule="evenodd" d="M17 1H1V17.9554L3.57909 15.9494C4.12075 15.5281 4.87924 15.5281 5.42091 15.9494L9 18.7331L12.5791 15.9494C13.1208 15.5281 13.8792 15.5281 14.4209 15.9494L17 17.9554V1ZM1 0C0.447715 0 0 0.447715 0 1V18.9777C0 19.3938 0.478541 19.6278 0.80697 19.3724L4.19303 16.7388C4.37358 16.5983 4.62641 16.5983 4.80697 16.7388L8.69303 19.7612C8.87358 19.9017 9.12641 19.9017 9.30697 19.7612L13.193 16.7388C13.3736 16.5983 13.6264 16.5983 13.807 16.7388L17.193 19.3724C17.5215 19.6278 18 19.3938 18 18.9777V1C18 0.447715 17.5523 0 17 0H1Z" fill="#494949"/>
<path d="M14.5 7H3.5C3.22386 7 3 6.77614 3 6.5V4.5C3 4.22386 3.22386 4 3.5 4H14.5C14.7761 4 15 4.22386 15 4.5V6.5C15 6.77614 14.7761 7 14.5 7Z" stroke="#494949" stroke-linecap="round"/>
<path d="M3 10H9" stroke="#494949" stroke-linecap="round"/>
<path d="M3 13H15" stroke="#494949" stroke-linecap="round"/>
<path d="M12 10L15 10" stroke="#494949" stroke-linecap="round"/>
</svg>
