<svg width="13" height="12" viewBox="0 0 13 12" fill="none" xmlns="http://www.w3.org/2000/svg">
<path fill-rule="evenodd" clip-rule="evenodd" d="M6.24417 0.166672C3.02417 0.166672 0.416672 2.78001 0.416672 6.00001C0.416672 9.22001 3.02417 11.8333 6.24417 11.8333C9.47001 11.8333 12.0833 9.22001 12.0833 6.00001C12.0833 2.78001 9.47001 0.166672 6.24417 0.166672ZM6.83334 6.58334V3.08334H5.66667V6.58334H6.83334ZM6.83334 8.91667V7.75H5.66667V8.91667H6.83334ZM1.58334 6C1.58334 8.57834 3.67167 10.6667 6.25 10.6667C8.82834 10.6667 10.9167 8.57834 10.9167 6C10.9167 3.42167 8.82834 1.33334 6.25 1.33334C3.67167 1.33334 1.58334 3.42167 1.58334 6Z" fill="#E33F37"/>
</svg>
