<svg width="20" height="20" viewBox="0 0 20 20" fill="none" xmlns="http://www.w3.org/2000/svg">
<path fill-rule="evenodd" clip-rule="evenodd" d="M5.05859 9H3.05859V19H5.05859V9ZM3.05859 8C2.50631 8 2.05859 8.44772 2.05859 9V19C2.05859 19.5523 2.50631 20 3.05859 20H5.05859C5.61088 20 6.05859 19.5523 6.05859 19V9C6.05859 8.44772 5.61088 8 5.05859 8H3.05859Z" fill="#494949"/>
<path fill-rule="evenodd" clip-rule="evenodd" d="M7.11538 5.04427L4.05861 0.955241L1.00176 5.04427L7.11538 5.04427ZM4.87235 0.399881C4.47353 -0.133615 3.6437 -0.133619 3.24488 0.399873L0.188032 4.4889C-0.284737 5.12131 0.188387 5.99976 1.00176 5.99976L7.11538 5.99976C7.92875 5.99976 8.40188 5.12132 7.92912 4.48891L4.87235 0.399881Z" fill="#494949"/>
<path fill-rule="evenodd" clip-rule="evenodd" d="M14.9414 10.9998L16.9414 10.9998L16.9414 0.999756L14.9414 0.999756L14.9414 10.9998ZM16.9414 11.9998C17.4937 11.9998 17.9414 11.552 17.9414 10.9998L17.9414 0.999756C17.9414 0.447472 17.4937 -0.00024418 16.9414 -0.000244228L14.9414 -0.000244403C14.3891 -0.000244451 13.9414 0.44747 13.9414 0.999756L13.9414 10.9998C13.9414 11.552 14.3891 11.9998 14.9414 11.9998L16.9414 11.9998Z" fill="#494949"/>
<path fill-rule="evenodd" clip-rule="evenodd" d="M12.8846 14.9555L15.9414 19.0445L18.9982 14.9555L12.8846 14.9555ZM15.1277 19.5999C15.5265 20.1334 16.3563 20.1334 16.7551 19.5999L19.812 15.5109C20.2847 14.8784 19.8116 14 18.9982 14L12.8846 14C12.0712 14 11.5981 14.8784 12.0709 15.5108L15.1277 19.5999Z" fill="#494949"/>
</svg>
